<?xml version="1.0" encoding="UTF-8" standalone="no"?>
<svg
   width="220mm"
   height="213.42924mm"
   viewBox="0 0 220 213.42924"
   version="1.1"
   xmlns="http://www.w3.org/2000/svg">
  <g transform="translate(417.3096,309.69362)">
    <path
       style="fill:#005efb"
       d="m -335.68564,-96.4023 c -10.42418,-0.9303 -16.70215,-2.26529 -24.60625,-5.23244 -13.33456,-5.00572 -26.69182,-14.58784 -35.99331,-25.82058 -4.30778,-5.20219 -9.11006,-12.59714 -12.22964,-18.83222 -3.88926,-7.77345 -7.34984,-19.51721 -8.38133,-28.44271 -0.36328,-3.14354 -0.41282,-11.44999 -0.4131,-69.26762 l -3.3e-4,-65.69575 53.90886,0.10215 c 47.08213,0.0892 54.42818,0.15586 58.00989,0.52632 10.89246,1.1266 21.05633,3.47236 29.26522,6.75423 9.14165,3.65479 15.45586,7.24561 24.03994,13.67123 7.09625,5.31191 13.78884,11.75887 21.97967,21.17298 2.63603,3.02971 6.69709,7.50618 18.21929,20.08298 5.07889,5.54373 10.29338,11.28929 11.58776,12.76789 1.29439,1.4786 2.51358,2.74982 2.70932,2.82494 0.20482,0.0786 0.7311,-0.33255 1.23983,-0.96858 0.9345,-1.16837 5.34046,-6.02476 8.68584,-9.57382 1.09839,-1.16527 3.30677,-3.54557 4.9075,-5.28956 1.60073,-1.74398 4.27963,-4.60338 5.95312,-6.35422 1.67349,-1.75084 5.66054,-5.97851 8.8601,-9.39482 11.49383,-12.27244 11.37366,-12.16813 15.95947,-13.85264 l 2.61518,-0.96064 23.78731,0.0676 c 18.69236,0.0531 23.78731,0.13772 23.78731,0.39508 0,0.18013 -2.61937,3.03645 -5.82083,6.34738 -3.20146,3.31093 -6.95535,7.21168 -8.34199,8.66832 -1.38663,1.45665 -5.61857,5.86314 -9.4043,9.79221 -3.78574,3.92906 -9.7887,10.23937 -13.33993,14.02291 -6.95087,7.4056 -8.97397,9.54305 -13.89294,14.67819 -1.74625,1.82299 -5.61579,5.93017 -8.59896,9.12707 -2.98318,3.19691 -6.52529,6.87277 -7.87136,8.16859 -1.34606,1.29582 -2.44739,2.49951 -2.44739,2.67485 0,0.31529 2.54773,3.12907 15.89037,17.54977 7.44846,8.05027 21.89708,23.93093 32.79296,36.04315 2.40109,2.66913 6.80641,7.54524 9.78958,10.8358 9.05158,9.98423 11.50537,12.73287 11.59757,12.99114 0.0542,0.15187 -9.24227,0.24706 -24.12809,0.24706 h -24.21629 l -1.8681,-0.69244 c -1.10371,-0.4091 -2.29006,-1.08575 -2.89932,-1.65364 -0.95074,-0.8862 -7.80968,-8.45466 -16.79744,-18.53504 -3.92273,-4.3996 -13.63928,-14.99376 -17.36602,-18.93454 -6.80962,-7.20071 -23.34026,-25.13052 -32.92487,-35.71167 -6.21995,-6.86664 -10.2787,-11.28497 -15.20349,-16.55039 -1.97495,-2.11155 -5.72366,-6.15967 -8.33048,-8.99583 -12.86509,-13.99695 -25.98156,-27.55922 -29.78846,-30.80092 -8.43853,-7.18566 -20.04966,-13.21568 -29.8313,-15.49231 -9.02215,-2.09987 -10.23958,-2.15709 -43.98745,-2.06745 l -28.97187,0.0769 -0.0766,46.0375 c -0.0535,32.15849 0.0111,46.83514 0.21415,48.68333 0.36186,3.29322 1.65524,9.06557 2.6974,12.03854 3.48546,9.94286 11.81206,20.6194 19.7462,25.31901 11.41428,6.76098 24.35558,8.96457 37.09528,6.31644 5.91246,-1.22899 13.14509,-4.22798 18.7725,-7.78394 3.65656,-2.3106 8.65119,-6.49899 12.79299,-10.72795 1.72464,-1.76093 5.77277,-5.88377 8.99584,-9.16188 3.22307,-3.2781 7.46167,-7.62388 9.41911,-9.65729 7.05927,-7.33323 9.7085,-10.0937 11.93053,-12.43149 9.94843,-10.46672 12.2551,-12.83954 12.41687,-12.77301 0.22924,0.0943 3.14,3.24043 7.1509,7.72918 3.0275,3.38818 15.26471,16.74217 17.27792,18.85472 l 1.05566,1.10774 -2.61835,2.77175 c -9.27436,9.81767 -16.19142,17.08263 -22.19752,23.31397 -9.39737,9.74979 -12.03849,12.50818 -16.98228,17.73629 -5.19545,5.49424 -7.08117,7.3015 -10.66668,10.22282 -9.36108,7.62701 -19.47649,13.67562 -27.38437,16.37474 -7.79899,2.66196 -14.51495,4.28455 -21.29896,5.14587 -3.86651,0.49091 -12.85205,0.71993 -16.27187,0.41473 z" />
  </g>
</svg>
