<?xml version="1.0" encoding="UTF-8" standalone="no"?>
<!-- Created with Inkscape (http://www.inkscape.org/) -->

<svg
   width="974.32806mm"
   height="213.42924mm"
   viewBox="0 0 974.32806 213.42924"
   version="1.1"
   id="svg1"
   xml:space="preserve"
   inkscape:version="1.4.2 (f4327f4, 2025-05-13)"
   sodipodi:docname="Logo DAXUM original blanco.svg"
   xmlns:inkscape="http://www.inkscape.org/namespaces/inkscape"
   xmlns:sodipodi="http://sodipodi.sourceforge.net/DTD/sodipodi-0.dtd"
   xmlns="http://www.w3.org/2000/svg"
   xmlns:svg="http://www.w3.org/2000/svg"><sodipodi:namedview
     id="namedview1"
     pagecolor="#ffffff"
     bordercolor="#000000"
     borderopacity="0.25"
     inkscape:showpageshadow="2"
     inkscape:pageopacity="0.0"
     inkscape:pagecheckerboard="0"
     inkscape:deskcolor="#d1d1d1"
     inkscape:document-units="mm"
     inkscape:zoom="0.21871556"
     inkscape:cx="1924.8745"
     inkscape:cy="834.41708"
     inkscape:window-width="1536"
     inkscape:window-height="889"
     inkscape:window-x="1072"
     inkscape:window-y="-8"
     inkscape:window-maximized="1"
     inkscape:current-layer="layer1" /><defs
     id="defs1" /><g
     inkscape:label="Capa 1"
     inkscape:groupmode="layer"
     id="layer1"
     transform="translate(417.3096,309.69362)"><path
       style="fill:#ffffff"
       d="m -335.68564,-96.4023 c -10.42418,-0.9303 -16.70215,-2.26529 -24.60625,-5.23244 -13.33456,-5.00572 -26.69182,-14.58784 -35.99331,-25.82058 -4.30778,-5.20219 -9.11006,-12.59714 -12.22964,-18.83222 -3.88926,-7.77345 -7.34984,-19.51721 -8.38133,-28.44271 -0.36328,-3.14354 -0.41282,-11.44999 -0.4131,-69.26762 l -3.3e-4,-65.69575 53.90886,0.10215 c 47.08213,0.0892 54.42818,0.15586 58.00989,0.52632 10.89246,1.1266 21.05633,3.47236 29.26522,6.75423 9.14165,3.65479 15.45586,7.24561 24.03994,13.67123 7.09625,5.31191 13.78884,11.75887 21.97967,21.17298 2.63603,3.02971 6.69709,7.50618 18.21929,20.08298 5.07889,5.54373 10.29338,11.28929 11.58776,12.76789 1.29439,1.4786 2.51358,2.74982 2.70932,2.82494 0.20482,0.0786 0.7311,-0.33255 1.23983,-0.96858 0.9345,-1.16837 5.34046,-6.02476 8.68584,-9.57382 1.09839,-1.16527 3.30677,-3.54557 4.9075,-5.28956 1.60073,-1.74398 4.27963,-4.60338 5.95312,-6.35422 1.67349,-1.75084 5.66054,-5.97851 8.8601,-9.39482 11.49383,-12.27244 11.37366,-12.16813 15.95947,-13.85264 l 2.61518,-0.96064 23.78731,0.0676 c 18.69236,0.0531 23.78731,0.13772 23.78731,0.39508 0,0.18013 -2.61937,3.03645 -5.82083,6.34738 -3.20146,3.31093 -6.95535,7.21168 -8.34199,8.66832 -1.38663,1.45665 -5.61857,5.86314 -9.4043,9.79221 -3.78574,3.92906 -9.7887,10.23937 -13.33993,14.02291 -6.95087,7.4056 -8.97397,9.54305 -13.89294,14.67819 -1.74625,1.82299 -5.61579,5.93017 -8.59896,9.12707 -2.98318,3.19691 -6.52529,6.87277 -7.87136,8.16859 -1.34606,1.29582 -2.44739,2.49951 -2.44739,2.67485 0,0.31529 2.54773,3.12907 15.89037,17.54977 7.44846,8.05027 21.89708,23.93093 32.79296,36.04315 2.40109,2.66913 6.80641,7.54524 9.78958,10.8358 9.05158,9.98423 11.50537,12.73287 11.59757,12.99114 0.0542,0.15187 -9.24227,0.24706 -24.12809,0.24706 h -24.21629 l -1.8681,-0.69244 c -1.10371,-0.4091 -2.29006,-1.08575 -2.89932,-1.65364 -0.95074,-0.8862 -7.80968,-8.45466 -16.79744,-18.53504 -3.92273,-4.3996 -13.63928,-14.99376 -17.36602,-18.93454 -6.80962,-7.20071 -23.34026,-25.13052 -32.92487,-35.71167 -6.21995,-6.86664 -10.2787,-11.28497 -15.20349,-16.55039 -1.97495,-2.11155 -5.72366,-6.15967 -8.33048,-8.99583 -12.86509,-13.99695 -25.98156,-27.55922 -29.78846,-30.80092 -8.43853,-7.18566 -20.04966,-13.21568 -29.8313,-15.49231 -9.02215,-2.09987 -10.23958,-2.15709 -43.98745,-2.06745 l -28.97187,0.0769 -0.0766,46.0375 c -0.0535,32.15849 0.0111,46.83514 0.21415,48.68333 0.36186,3.29322 1.65524,9.06557 2.6974,12.03854 3.48546,9.94286 11.81206,20.6194 19.7462,25.31901 11.41428,6.76098 24.35558,8.96457 37.09528,6.31644 5.91246,-1.22899 13.14509,-4.22798 18.7725,-7.78394 3.65656,-2.3106 8.65119,-6.49899 12.79299,-10.72795 1.72464,-1.76093 5.77277,-5.88377 8.99584,-9.16188 3.22307,-3.2781 7.46167,-7.62388 9.41911,-9.65729 7.05927,-7.33323 9.7085,-10.0937 11.93053,-12.43149 9.94843,-10.46672 12.2551,-12.83954 12.41687,-12.77301 0.22924,0.0943 3.14,3.24043 7.1509,7.72918 3.0275,3.38818 15.26471,16.74217 17.27792,18.85472 l 1.05566,1.10774 -2.61835,2.77175 c -9.27436,9.81767 -16.19142,17.08263 -22.19752,23.31397 -9.39737,9.74979 -12.03849,12.50818 -16.98228,17.73629 -5.19545,5.49424 -7.08117,7.3015 -10.66668,10.22282 -9.36108,7.62701 -19.47649,13.67562 -27.38437,16.37474 -7.79899,2.66196 -14.51495,4.28455 -21.29896,5.14587 -3.86651,0.49091 -12.85205,0.71993 -16.27187,0.41473 z"
       id="path2"
       sodipodi:nodetypes="csssssccssssssssssssscssssssssssssssscsssssssssccsccsssssssssscsssssscc" /><path
       id="path1"
       style="fill:#ffffff"
       d="m 556.35706,-274.82967 -6.15156,0.17311 c -3.38335,0.0952 -6.9983,0.17356 -8.0331,0.17415 l -1.88154,0.001 -1.13636,1.65365 c -0.62497,0.9095 -2.0277,2.96333 -3.11764,4.56406 -1.08994,1.60073 -3.48278,5.08812 -5.31699,7.74992 -8.09962,11.75417 -10.62315,15.44411 -15.28331,22.34644 -2.72643,4.0382 -5.02651,7.34218 -5.11131,7.34218 -0.0848,0 -0.74596,-0.91516 -1.46916,-2.03398 -0.72319,-1.11881 -4.3882,-6.62545 -8.14473,-12.23698 -3.75653,-5.61152 -9.72908,-14.54878 -13.27205,-19.86029 l -6.44147,-9.65729 -8.55658,0.01 -8.55607,0.0103 -0.0765,44.635 -0.077,44.635 7.88221,0.0698 v -5.1e-4 c 4.335,0.0385 7.97098,0.0331 8.08012,-0.0119 0.10914,-0.045 0.19844,-14.37181 0.19844,-31.83785 0,-20.45528 0.0916,-31.72515 0.25735,-31.66835 0.14151,0.0485 2.01675,2.61276 4.16719,5.69836 3.89377,5.58705 4.99165,7.16835 10.52442,15.15825 1.60072,2.31162 3.89998,5.60914 5.10976,7.32772 1.20978,1.71859 3.78536,5.38655 5.72317,8.15144 3.38219,4.82574 3.55875,5.02708 4.41007,5.02708 0.96995,0 0.60601,0.44358 5.31905,-6.48229 1.03978,-1.52796 2.96022,-4.26641 4.26796,-6.08542 1.30775,-1.81901 3.29219,-4.61698 4.40955,-6.21771 1.11735,-1.60073 3.33011,-4.71035 4.91701,-6.91069 1.5869,-2.20033 4.13526,-5.80755 5.66322,-8.01604 1.52797,-2.20848 3.43296,-4.93293 4.23333,-6.0539 l 1.45521,-2.03812 0.21188,5.68854 c 0.1166,3.1287 0.14289,17.49247 0.0584,31.91899 l -0.15348,26.22992 0.86765,0.0961 c 0.47725,0.0528 4.05257,0.0586 7.94525,0.0134 l 7.0776,-0.0822 v -44.74037 z m -149.225,0.0842 v 26.30744 c 0,27.09253 -0.051,28.60915 -1.09347,32.39027 -2.48033,8.99664 -7.9606,14.55133 -16.50132,16.72662 -1.99462,0.50802 -3.09005,0.60806 -6.74687,0.61806 -3.93778,0.0103 -4.61563,-0.058 -6.91586,-0.69505 -4.91161,-1.36029 -7.21376,-2.58655 -10.18749,-5.42655 -2.79992,-2.67401 -4.63248,-6.06193 -6.07508,-11.23187 -0.98425,-3.52751 -1.13786,-8.92762 -1.01131,-35.53736 0.0655,-13.77963 0.0102,-22.37582 -0.14573,-22.62188 -0.2143,-0.33828 -1.41511,-0.39687 -8.13232,-0.39687 h -7.88117 l -0.0786,25.79687 c -0.083,27.28886 -0.0197,29.23653 1.14153,35.05884 1.80291,9.03999 5.87547,16.20221 11.9848,21.07624 6.38869,5.09691 15.09025,8.17989 24.39076,8.64236 l -5.2e-4,-5.1e-4 c 9.33624,0.46425 16.4916,-0.88904 23.6213,-4.46846 9.36499,-4.70162 14.9692,-11.89136 18.03404,-23.13503 1.76445,-6.473 1.73278,-5.82058 1.73478,-35.91718 l 0.002,-27.18594 h -8.0698 z m -402.6958265,0.0729 c -8.221927,-0.0716 -17.4790345,-0.0447 -20.5713545,0.06 l -5.622396,0.19017 v 44.5673 44.56731 l 21.76197954,-0.10232 21.76197846,-0.10232 3.133142,-0.6966 c 13.41581,-2.98501 22.72441,-8.47327 29.260747,-17.25114 2.795666,-3.7544 4.100859,-6.18994 5.968628,-11.13731 2.929647,-7.76008 3.408521,-17.17263 1.300695,-25.57673 -2.232968,-8.90305 -6.184526,-15.93335 -12.094869,-21.52014 -5.917703,-5.59375 -11.935645,-8.8736 -20.300052,-11.0634 -6.348994,-1.66216 -7.972354,-1.78998 -24.5984985,-1.93477 z m 230.7869465,0.076 -9.89087,0.0806 c -5.43999,0.0444 -9.91361,0.10304 -9.94151,0.13074 -0.0279,0.0277 1.28182,1.69972 2.91041,3.71554 3.34269,4.13748 4.07654,5.06148 13.27981,16.72353 15.23173,19.30109 17.33021,22.00615 17.33021,22.33817 0,0.58881 -13.14476,17.32961 -32.40112,41.26518 l -3.93775,4.89479 1.03767,0.13229 c 0.57078,0.0728 5.04357,0.0995 9.93996,0.0594 l 8.90281,-0.0729 4.75165,-6.14485 c 2.61341,-3.37964 5.33401,-6.92459 6.04614,-7.87807 1.29687,-1.73641 5.95494,-7.69528 9.57255,-12.24577 4.71935,-5.93636 6.29226,-7.82064 6.53913,-7.83414 0.14552,-0.008 2.7649,3.347 5.82083,7.45536 3.05594,4.10837 6.62782,8.88104 7.9375,10.60607 1.30969,1.72502 2.97657,3.94661 3.70417,4.93665 0.7276,0.99005 2.86343,3.89647 4.74648,6.45903 l 3.42408,4.65915 h 10.69651 10.6965 l -0.74207,-0.99219 c -1.00087,-1.338 -5.30726,-6.70976 -9.36067,-11.6768 -1.82683,-2.2386 -3.61608,-4.44126 -3.9765,-4.89479 -0.36042,-0.45354 -3.16543,-3.97991 -6.23321,-7.83622 -3.06778,-3.8563 -7.06733,-8.91645 -8.88783,-11.24479 -1.8205,-2.32833 -4.22448,-5.40149 -5.34231,-6.82956 -1.11784,-1.42808 -2.03244,-2.68189 -2.03244,-2.78587 0,-0.26232 11.82859,-15.06915 18.64951,-23.34535 7.57478,-9.19089 10.29106,-12.49813 13.05967,-15.90084 l 2.94401,-3.61838 -9.98441,-0.0889 c -5.49142,-0.0492 -10.10347,-0.0524 -10.24899,-0.007 -0.2838,0.0882 -5.01281,6.04011 -10.76626,13.55008 -1.95099,2.54661 -4.65438,6.05896 -6.00739,7.80521 -1.35302,1.74625 -3.66897,4.75678 -5.14645,6.69003 l -2.68615,3.51503 -0.7493,-0.8692 c -0.41212,-0.47804 -3.09543,-3.96482 -5.96295,-7.74836 -2.86752,-3.78355 -7.28743,-9.55808 -9.82214,-12.8323 -2.53472,-3.27422 -5.34225,-6.90227 -6.23889,-8.06204 z m -94.07385,0.0563 c -0.17636,-0.0596 -3.46699,-0.0406 -7.31273,0.0419 l -6.99234,0.14986 -22.1604,44.31771 c -12.188334,24.37474 -22.168374,44.40701 -22.177974,44.51615 -0.01,0.10913 4.03918,0.19843 8.99738,0.19843 h 9.014954 l 1.79111,-3.77031 c 2.48645,-5.23354 2.96979,-6.27335 5.30613,-11.41842 1.12959,-2.48757 3.12394,-6.78491 4.43177,-9.54981 1.30783,-2.76489 3.06678,-6.51536 3.90932,-8.33437 0.84253,-1.81901 2.42495,-5.09323 3.51607,-7.27604 1.09112,-2.18282 2.6083,-5.33797 3.37137,-7.01146 0.76308,-1.67349 2.92688,-6.2574 4.80849,-10.18646 1.88162,-3.92906 3.77048,-7.91183 4.19768,-8.85062 1.16366,-2.5572 1.88832,-3.85421 2.12958,-3.81011 0.19571,0.0358 1.979,3.76712 6.63061,13.87409 7.80034,16.9485 12.83154,27.71693 20.32382,43.50122 2.00313,4.22011 4.15745,8.80401 4.78731,10.18646 l 1.14515,2.51354 9.12605,0.0698 9.12606,0.0692 -1.46037,-3.11195 c -2.39015,-5.09441 -3.58303,-7.51598 -17.1111,-34.73018 -17.2664,-34.73455 -24.51185,-49.49923 -24.91683,-50.7752 -0.0882,-0.27781 -0.30475,-0.5538 -0.48111,-0.6134 z M 5.3255845,-259.92878 c 11.6796865,0 15.3039885,0.2258 19.1063275,1.1896 9.695407,2.45754 16.886859,9.04338 20.32279,18.61126 2.196576,6.1167 2.004968,14.98482 -0.459403,21.26072 -2.47344,6.29901 -6.080862,10.70196 -11.770858,14.36553 -3.639316,2.34322 -6.473237,3.41277 -11.282515,4.25917 -1.625991,0.2862 -5.040571,0.37334 -14.6228805,0.37362 l -12.501562,5.2e-4 -0.03359,-6.41614 c -0.162811,-30.89557 -0.13245,-52.78809 0.0739,-53.18125 0.225454,-0.42962 1.032047,-0.46303 11.167794,-0.46303 z M 510.99136,-157.23685 c -0.97099,0.001 -1.9561,0.12331 -2.92902,0.37672 -2.27046,0.59138 -3.64994,1.3565 -5.13354,2.84789 -3.16417,3.1808 -4.4325,8.29381 -3.3383,13.45654 1.01705,4.79867 3.99792,8.00021 8.4801,9.10745 5.78636,1.42941 11.96598,-1.77825 13.24519,-6.87503 l 0.17363,-0.69091 h -1.88722 c -1.75894,0 -1.90424,0.0439 -2.13372,0.6475 -0.37919,0.99735 -2.09832,2.76779 -3.29437,3.39256 -0.81083,0.42354 -1.56639,0.56458 -3.06235,0.57258 -3.58855,0.0188 -6.07325,-1.77773 -7.42073,-5.36608 -0.48663,-1.29603 -0.54937,-1.93678 -0.47077,-4.80281 0.0785,-2.86489 0.17743,-3.48426 0.74,-4.63021 1.85189,-3.77226 5.47425,-5.42868 9.33277,-4.26744 1.73333,0.52166 2.99646,1.59777 3.7977,3.23546 l 0.69918,1.42885 h 1.97145 c 2.2495,0 2.20351,0.11551 1.00718,-2.56005 -1.61983,-3.6227 -5.56959,-5.87905 -9.77718,-5.87302 z m -114.80695,0.0243 c -0.48026,-0.0209 -0.97094,-0.0153 -1.46968,0.017 -5.62653,0.36452 -9.30379,3.46423 -10.72802,9.04286 -0.51428,2.0141 -0.5181,6.20192 -0.008,8.16126 1.13281,4.34914 3.86659,7.25664 7.9127,8.41499 4.11734,1.17873 9.01741,0.0501 11.73778,-2.7032 1.86959,-1.89225 2.27474,-3.03756 2.39986,-6.78511 l 0.10852,-3.24115 h -4.88291 c -2.68545,0 -4.93237,0.0495 -4.99297,0.11007 -0.0607,0.0606 -0.069,0.71541 -0.0186,1.45521 l 0.092,1.34514 h 2.63756 c 3.26853,0 3.68199,0.18113 3.47472,1.52187 -0.50381,3.25898 -3.17619,5.44033 -6.69261,5.46323 -3.48745,0.0227 -5.95487,-1.47971 -7.46311,-4.54339 -0.84013,-1.70646 -0.87106,-1.88191 -0.86506,-4.94957 0.007,-3.80717 0.52636,-5.43457 2.40037,-7.51892 1.90135,-2.11472 5.13519,-2.9562 8.14575,-2.12028 1.28955,0.35805 3.51226,2.40037 3.73983,3.43648 0.16901,0.76993 0.17858,0.77308 2.1332,0.77308 1.05453,0 1.92156,-0.0423 1.96164,-0.0951 1.3e-4,-2.1e-4 9.2e-4,-0.001 10e-4,-0.002 v -5.1e-4 l 5.2e-4,-5.2e-4 c 2e-5,-2.1e-4 0,-0.001 0,-0.001 0,-0.53188 -0.99853,-2.69181 -1.75493,-3.79667 -1.64965,-2.4096 -4.508,-3.83762 -7.86981,-3.98373 z m 159.67088,0.1235 -4.02457,0.17415 c -2.2135,0.0958 -5.91031,0.17415 -8.21551,0.17415 h -4.19148 v 12.56203 12.5615 l 4.96094,0.0822 c 2.72852,0.0451 6.43345,0.0768 8.2336,0.0718 l 3.27319,-0.01 0.0341,-1.53841 0.0346,-1.53789 -6.26319,0.0253 c -3.8927,0.0158 -6.32442,-0.0743 -6.42544,-0.23771 -0.0894,-0.14464 -0.0809,-1.99366 0.0191,-4.10931 l 0.1819,-3.84679 h 5.78052 5.78105 v -1.61024 -1.61075 l -5.20589,0.10955 c -2.86303,0.0602 -5.48241,0.057 -5.82083,-0.008 -0.61033,-0.11661 -0.61495,-0.1501 -0.61495,-3.91811 v -3.8008 l 6.15156,-0.0713 6.15156,-0.0708 0.0796,-1.6955 z m -194.66564,0.17725 c -0.32329,0.0285 -0.35967,1.70701 -0.35967,12.56358 v 12.71395 l 1.25677,0.0992 c 0.69123,0.0545 1.52466,0.12056 1.85208,0.14676 l 0.59532,0.0475 v -12.7 -12.7 h -1.43351 c -0.78846,0 -1.6219,-0.0724 -1.85208,-0.16071 -0.0207,-0.008 -0.0402,-0.012 -0.0589,-0.0103 z m 116.40323,0.0346 c -0.0524,0.0175 -0.3442,14.72042 -0.3452,17.41599 -5.1e-4,0.93405 -0.10267,1.47437 -0.25993,1.37717 -0.14233,-0.088 -2.30684,-3.04167 -4.81004,-6.56394 -2.5032,-3.52227 -5.49495,-7.68419 -6.64818,-9.24853 l -2.09651,-2.84427 h -1.6924 -1.69189 v 12.14913 c 0,6.68206 -0.0724,12.33752 -0.16071,12.56771 -0.13756,0.35841 0.12105,0.41858 1.80299,0.41858 h 1.9637 l 0.045,-9.19427 c 0.0248,-5.05685 0.0471,-9.29366 0.0491,-9.41493 0.0132,-0.73756 0.31633,-0.32831 9.37876,12.65607 1.72662,2.47385 3.47487,4.85671 3.88503,5.29529 0.67175,0.71835 0.89767,0.79474 2.27583,0.76894 l 1.53014,-0.0289 0.0687,-12.58527 0.0687,-12.58528 -1.65623,-0.10026 c -0.91091,-0.0552 -1.67917,-0.0922 -1.70687,-0.0832 z m -279.97051,0.0357 c -0.34182,-0.002 -0.58105,0.01 -0.63562,0.0362 -0.10913,0.0524 -0.19844,4.38133 -0.19844,9.62008 0,5.69212 -0.0972,9.46506 -0.24184,9.37566 -0.22218,-0.13732 -5.40481,-7.21534 -10.47171,-14.30146 -3.53332,-4.9414 -3.19102,-4.6302 -5.0953,-4.63021 h -1.65365 v 12.65298 12.65349 l 1.57148,-0.0253 c 0.86431,-0.0139 1.62677,-0.082 1.69447,-0.15141 0.0677,-0.0694 0.17957,-4.32882 0.24857,-9.46506 0.069,-5.13624 0.18646,-9.39934 0.26096,-9.47384 0.0745,-0.0745 0.40818,0.25817 0.74156,0.73949 3.89594,5.62477 12.18734,17.23566 12.7646,17.87488 0.44044,0.48772 0.81615,0.59531 2.07894,0.59531 0.84776,0 1.54901,-0.0297 1.55701,-0.0661 0.008,-0.0364 0.083,-5.73992 0.16588,-12.67468 l 0.1509,-12.60905 -1.68776,-0.10491 c -0.46404,-0.0291 -0.90823,-0.0442 -1.25005,-0.046 z m 25.29355,0.032 -4.69636,0.14625 v 1.54202 1.54151 l 4.0349,0.0734 4.03489,0.0729 0.0693,10.91407 0.0687,10.91406 h 1.8495 1.84898 v -10.97354 -10.97298 l 4.0256,-0.0734 4.02611,-0.0729 0.0868,-1.52135 0.0868,-1.52136 -0.87126,-0.0434 c -2.77243,-0.13776 -10.5148,-0.15123 -14.56397,-0.0253 z m -240.109375,0.0119 -4.299479,0.11937 v 12.60233 12.60233 l 5.490104,-0.0191 c 5.574196,-0.0194 6.8818494,-0.18783 9.1942715,-1.18494 3.715482,-1.60211 6.04472107,-5.31098 6.39909304,-10.18956 0.427366,-5.8835 -1.98009304,-10.51219 -6.59856404,-12.68759 -2.4265011,-1.14294 -4.5354265,-1.40007 -10.1854255,-1.24282 z m 80.301042,0.005 -9.988021,0.10128 v 1.55598 1.55598 l 4.034896,0.0734 4.034896,0.0729 -0.100252,8.99584 c -0.0552,4.94771 -0.01333,9.85904 0.09302,10.91406 l 0.19327,1.91823 h 1.822111 1.822628 l 0.06873,-10.91406 0.06925,-10.91407 4.002856,-0.0729 4.00234,-0.0729 0.134359,-1.51464 c 0.07381,-0.83305 0.05837,-1.57886 -0.03411,-1.65726 -0.09248,-0.0784 -4.662558,-0.0974 -10.155969,-0.0419 z m 377.986743,0.006 c -0.10074,-0.17553 -16.00213,0.0303 -16.20831,0.20981 -0.058,0.0505 -0.1439,5.68736 -0.1912,12.52637 l -0.0863,12.43438 5.08599,0.0816 h 5.2e-4 c 2.79734,0.0449 6.49722,0.0768 8.22223,0.0718 l 3.13676,-0.01 0.0382,-1.55804 0.0388,-1.55753 -5.95312,0.0419 c -3.27422,0.023 -6.10556,-0.0592 -6.29161,-0.18242 -0.25458,-0.16862 -0.32008,-1.16869 -0.26458,-4.04058 l 0.0739,-3.81579 5.76761,-0.0713 5.76761,-0.0713 -0.0791,-1.51618 -0.0791,-1.51619 -5.75469,-0.0713 -5.75469,-0.0713 -0.0362,-1.11931 c -0.0198,-0.61562 -0.0699,-1.53603 -0.1111,-2.04535 -0.0411,-0.50932 -0.0128,-1.72971 0.063,-2.71198 l 0.13798,-1.78594 h 6.15776 6.15828 l 0.13178,-1.52135 c 0.0726,-0.83674 0.0858,-1.60186 0.0294,-1.70016 z m -415.678499,0.046 -1.924947,4.82865 c -3.009159,7.54695 -7.724426,19.59535 -7.874455,20.12074 -0.123037,0.43088 0.04264,0.46797 1.775602,0.39687 l 1.912028,-0.0785 0.341065,-0.92604 c 0.187556,-0.50932 0.78129,-2.02737 1.319816,-3.37344 l 0.979268,-2.44739 h 5.369698 5.370215 l 1.188558,3.37344 1.189075,3.37343 2.017448,0.0775 c 1.1096,0.0425 2.017448,-0.0242 2.017448,-0.1478 0,-0.12357 -1.027059,-2.83697 -2.282032,-6.03012 -4.701187,-11.96169 -6.119298,-15.64405 -6.694681,-17.38137 l -0.591696,-1.78604 h -2.056205 z m 239.474269,0 c -7.51697,0 -8.34644,0.0424 -8.20208,0.41858 0.0883,0.23018 0.16071,5.88274 0.16071,12.56151 v 12.14345 l 4.82865,0.0785 c 2.65576,0.0432 6.34669,0.10508 8.20208,0.13798 l 3.37344,0.0599 5.1e-4,-1.65364 v -1.65365 l -5.22552,0.0816 c -2.87419,0.045 -5.73493,0.008 -6.35723,-0.0832 l -1.13172,-0.16536 0.0729,-3.88504 0.0734,-3.88555 5.82083,-0.0512 5.82083,-0.0512 v -1.53634 -1.53634 l -5.82083,-0.13229 -5.82083,-0.13229 v -3.70417 -3.70416 l 6.28385,-0.0708 6.28386,-0.0708 v -1.58285 -1.58285 z m -109.37679,5.2e-4 v 12.56771 12.56771 h 1.85209 1.85208 v -12.56778 -12.56771 h -1.85208 z m 136.525,0 v 12.54549 c 0,9.79652 0.0725,12.57166 0.33073,12.66486 0.1819,0.0656 3.7404,0.10547 7.90753,0.0884 l 7.57628,-0.031 0.16692,-1.40715 c 0.0918,-0.77393 0.1,-1.51545 0.0181,-1.64796 -0.0873,-0.1414 -2.53383,-0.17178 -5.91643,-0.0734 -5.8622,0.17044 -6.10447,0.14058 -6.27559,-0.77411 -0.0204,-0.10914 -0.0521,-4.96095 -0.0703,-10.78178 l -0.0331,-10.58333 h -1.85208 z m 34.39584,0 v 12.56771 12.56771 h 7.90081 7.90029 l 0.16123,-1.36116 c 0.0887,-0.74858 0.10787,-1.44792 0.0424,-1.55391 -0.0655,-0.1059 -2.56423,-0.13555 -5.55263,-0.0662 -2.9884,0.0694 -5.72912,0.052 -6.09058,-0.0387 l -0.65733,-0.16537 v -10.97511 -10.97504 h -1.85208 z m -226.08491,0.0269 c -0.27769,-0.002 -0.636527,0.01 -1.104844,0.0279 l -1.98644,0.077 -3.42305,8.59895 c -3.54322,8.90108 -6.31962,16.09617 -6.31899,16.37575 2e-4,0.0884 0.86107,0.16071 1.91358,0.16071 h 1.91409 l 1.3069,-3.3786 1.30741,-3.37912 5.30614,0.0718 5.306134,0.0713 1.16324,3.37344 1.16375,3.37343 h 1.95078 c 1.05196,0 1.91639,-0.0479 1.94976,-0.10697 l 5.1e-4,-5.1e-4 c 8e-5,-2.4e-4 4.7e-4,-10e-4 5.2e-4,-0.002 v -5.2e-4 -5.2e-4 c 0,-0.0607 -0.4643,-1.40012 -1.03146,-2.97656 -1.04233,-2.89716 -1.62621,-4.41422 -5.84202,-15.16962 -1.2834,-3.27421 -2.41444,-6.22595 -2.51354,-6.55928 -0.12746,-0.42861 -0.22941,-0.55238 -1.06247,-0.55708 z m -118.066177,3.14697 h 3.355868 c 4.343086,0 5.7149045,0.38603 7.4150515,2.08618 1.581817,1.58181 2.391807,3.63015 2.580204,6.52364 0.307098,4.71653 -1.32244,8.05485 -4.6875691,9.60354 -1.2560364,0.57805 -1.9138294,0.68265 -4.8947924,0.77825 -2.59501,0.0832 -3.525226,0.0257 -3.774446,-0.23306 -0.24963,-0.25926 -0.330729,-2.29911 -0.330729,-8.32352 0,-4.38897 0.07596,-8.53204 0.168465,-9.20719 z m 45.130062,1.38338 c 0.151087,-7.5e-4 0.49489,0.69386 0.778764,1.5813 0.293032,0.91608 1.139771,3.33062 1.882056,5.36557 0.742286,2.03495 1.349788,3.79112 1.349788,3.9026 0,0.1115 -1.84547,0.20257 -4.101042,0.20257 -2.255573,0 -4.101041,-0.10637 -4.101041,-0.23616 0,-0.53806 3.938937,-10.73431 4.177522,-10.81381 0.0045,-0.001 0.0091,-0.002 0.01395,-0.002 z m 72.045731,0.25218 c 0.131247,0.002 0.227377,0.10697 0.227377,0.26769 0,0.19782 0.773897,2.51999 1.719787,5.16041 0.94588,2.64042 1.71979,4.92892 1.71979,5.08599 0,0.19159 -1.15418,0.27588 -3.505727,0.25528 -4.065077,-0.0356 -4.531787,-0.11328 -4.349597,-0.7214 0.60562,-2.02148 3.83932,-9.94796 4.09277,-10.03246 0.0333,-0.0111 0.0653,-0.016 0.0956,-0.0155 z" /></g></svg>
